<?xml version="1.0" encoding="utf-8"?>
<!DOCTYPE svg PUBLIC "-//W3C//DTD SVG 1.1//EN" "http://www.w3.org/Graphics/SVG/1.1/DTD/svg11.dtd">
<svg version="1.1" xmlns="http://www.w3.org/2000/svg" xmlns:xlink="http://www.w3.org/1999/xlink" x="0px"
	 y="0px" width="100%" height="100%" viewBox="0 0 640 184" enable-background="new 0 0 640 184" xml:space="preserve">
<g>
	<path fill="#888888" d="M110.315,96.604h17.846v8.18c2.658-3.336,5.352-5.711,8.075-7.139c2.72-1.429,6.041-2.147,9.954-2.147
		c5.287,0,9.429,1.577,12.412,4.728c2.992,3.147,4.488,8.014,4.488,14.597v31.742h-19.265v-27.426c0-3.132-0.575-5.345-1.726-6.646
		c-1.155-1.295-2.776-1.942-4.863-1.942c-2.304,0-4.174,0.875-5.608,2.627c-1.434,1.753-2.151,4.898-2.151,9.438v23.95h-19.162
		V96.604z"/>
	<path fill="#888888" d="M188.126,112.755l-18.262-1.904c0.693-3.192,1.685-5.705,2.985-7.536c1.303-1.827,3.175-3.419,5.616-4.765
		c1.755-0.968,4.167-1.722,7.239-2.253c3.071-0.531,6.392-0.799,9.961-0.799c5.735,0,10.342,0.321,13.816,0.962
		c3.481,0.646,6.376,1.985,8.696,4.025c1.63,1.411,2.913,3.404,3.854,5.994c0.94,2.586,1.409,5.058,1.409,7.406v22.051
		c0,2.355,0.149,4.194,0.447,5.531c0.3,1.333,0.95,3.031,1.953,5.098h-18c-0.726-1.285-1.199-2.271-1.416-2.95
		c-0.223-0.672-0.441-1.737-0.66-3.185c-2.501,2.416-4.989,4.135-7.462,5.171c-3.382,1.381-7.304,2.068-11.777,2.068
		c-5.948,0-10.459-1.381-13.542-4.143c-3.08-2.767-4.621-6.17-4.621-10.222c0-3.795,1.109-6.92,3.332-9.369
		c2.219-2.446,6.318-4.267,12.293-5.457c7.163-1.445,11.807-2.458,13.938-3.039c2.125-0.583,4.378-1.341,6.758-2.281
		c0-2.344-0.488-3.981-1.458-4.919c-0.967-0.938-2.672-1.4-5.11-1.4c-3.128,0-5.473,0.5-7.033,1.5
		C189.861,109.123,188.875,110.599,188.126,112.755z M204.682,122.788c-2.625,0.943-5.361,1.779-8.205,2.5
		c-3.875,1.034-6.328,2.063-7.357,3.065c-1.063,1.042-1.595,2.219-1.595,3.542c0,1.509,0.521,2.739,1.571,3.7
		c1.043,0.959,2.587,1.442,4.617,1.442c2.125,0,4.102-0.524,5.927-1.56c1.832-1.039,3.127-2.304,3.894-3.799
		c0.762-1.494,1.149-3.438,1.149-5.823V122.788z"/>
	<path fill="#888888" d="M254.543,83.965v12.638h10.538v14.048h-10.538v17.659c0,2.125,0.208,3.54,0.614,4.223
		c0.625,1.065,1.724,1.59,3.291,1.59c1.409,0,3.383-0.402,5.921-1.215l1.413,13.209c-4.734,1.037-9.147,1.552-13.25,1.552
		c-4.764,0-8.272-0.608-10.527-1.83c-2.252-1.222-3.918-3.075-5-5.56c-1.085-2.485-1.624-6.516-1.624-12.087v-17.541h-7.024V96.604
		h7.024V83.965H254.543z"/>
	<path fill="#888888" d="M323.004,146.564h-17.893v-8.098c-2.663,3.321-5.348,5.685-8.049,7.088
		c-2.71,1.412-6.035,2.114-9.976,2.114c-5.261,0-9.387-1.573-12.372-4.727c-2.991-3.148-4.485-8-4.485-14.554V96.604h19.265v27.461
		c0,3.136,0.575,5.362,1.729,6.678c1.151,1.322,2.771,1.979,4.857,1.979c2.274,0,4.139-0.875,5.585-2.632
		c1.447-1.756,2.173-4.909,2.173-9.457V96.604h19.164V146.564z"/>
	<path fill="#888888" d="M329.188,96.604h17.946v8.188c1.724-3.536,3.5-5.974,5.33-7.299c1.837-1.326,4.102-1.995,6.795-1.995
		c2.817,0,5.909,0.868,9.255,2.609l-5.92,13.65c-2.255-0.939-4.036-1.406-5.355-1.406c-2.503,0-4.445,1.029-5.82,3.1
		c-1.978,2.917-2.967,8.372-2.967,16.367v16.747h-19.264V96.604z"/>
	<path fill="#888888" d="M388.843,112.755l-18.259-1.904c0.693-3.192,1.684-5.705,2.985-7.536c1.305-1.827,3.177-3.419,5.617-4.765
		c1.755-0.968,4.17-1.722,7.237-2.253c3.072-0.531,6.393-0.799,9.961-0.799c5.739,0,10.347,0.321,13.817,0.962
		c3.481,0.646,6.378,1.985,8.694,4.025c1.631,1.411,2.915,3.404,3.853,5.994c0.942,2.586,1.408,5.058,1.408,7.406v22.051
		c0,2.355,0.156,4.194,0.454,5.531c0.296,1.333,0.947,3.031,1.95,5.098h-18c-0.728-1.285-1.197-2.271-1.419-2.95
		c-0.216-0.672-0.44-1.737-0.656-3.185c-2.503,2.416-4.99,4.135-7.469,5.171c-3.375,1.381-7.3,2.068-11.771,2.068
		c-5.947,0-10.464-1.381-13.541-4.143c-3.081-2.767-4.625-6.17-4.625-10.222c0-3.795,1.111-6.92,3.339-9.369
		c2.213-2.446,6.314-4.267,12.286-5.457c7.169-1.445,11.81-2.458,13.938-3.039c2.125-0.583,4.379-1.341,6.754-2.281
		c0-2.344-0.478-3.981-1.452-4.919c-0.972-0.938-2.667-1.4-5.11-1.4c-3.125,0-5.467,0.5-7.029,1.5
		C390.58,109.123,389.593,110.599,388.843,112.755z M405.396,122.788c-2.625,0.943-5.353,1.779-8.196,2.5
		c-3.875,1.034-6.329,2.063-7.36,3.065c-1.063,1.042-1.594,2.219-1.594,3.542c0,1.509,0.519,2.739,1.57,3.7
		c1.045,0.959,2.586,1.442,4.617,1.442c2.121,0,4.097-0.524,5.928-1.56c1.83-1.039,3.125-2.304,3.893-3.799
		c0.764-1.494,1.143-3.438,1.143-5.823V122.788z"/>
	<rect x="432.546" y="77.641" fill="#888888" width="19.159" height="68.924"/>
	<path fill="#888888" d="M580.947,96.604h20.199l10.353,33.261l9.581-33.261h18.864l-19.823,53.384
		c-2.263,6.085-4.572,10.192-6.927,12.327c-3.333,3.008-8.4,4.519-15.213,4.519c-2.767,0-7.037-0.375-12.813-1.133l-1.514-13.336
		c2.769,0.884,5.846,1.325,9.237,1.325c2.265,0,4.094-0.521,5.492-1.56c1.397-1.034,2.583-2.893,3.557-5.569L580.947,96.604z"/>
</g>
<g>
	<path fill="#5DA8B6" d="M466.947,143.104c4.949,4.204,11.44,6.313,19.474,6.313c9,0,16.047-2.536,21.146-7.602
		c5.091-5.066,7.639-11.566,7.639-19.504c0-7.063-2.053-13.006-6.156-17.823c-5.112-5.995-12.673-8.99-22.678-8.99
		c-8.747,0-15.694,2.552-20.839,7.654c-5.143,5.097-7.713,11.58-7.713,19.452C457.819,131.055,460.861,137.885,466.947,143.104z
		 M479.709,112.413c1.823-2.224,4.121-3.33,6.92-3.33c1.08,0,2.087,0.194,3.026,0.564c-2.672,1.125-4.547,3.768-4.547,6.845
		c0,4.104,3.321,7.427,7.422,7.427c1.23,0,2.375-0.327,3.396-0.858c-0.087,4.413-0.961,7.67-2.645,9.728
		c-1.768,2.17-4.033,3.256-6.79,3.256c-2.738,0-5.003-1.108-6.804-3.307c-1.804-2.199-2.705-5.607-2.705-10.199
		C476.983,118.002,477.89,114.627,479.709,112.413z"/>
	<path fill="#5DA8B6" d="M577.674,123.464c0-8.503,0-17.454,0-25.957h-19.347c0.12,0.632,0,1.357,0,2.003
		c-15.618-9.727-39.678-1.153-42.56,17.673c-1.894,12.367,2.171,26.315,14.656,31.117c7.935,3.057,18.568,3.244,26.296-0.228
		c-8.077,14.579-28.603,18.542-43.671,17.517c-20.619-1.414-40.313-11.325-56.277-23.938
		c11.673,50.143,90.886,54.648,115.818,13.851C579.075,144.88,577.674,135.742,577.674,123.464z M543.746,134.729
		c-7.188,0-9.507-7.099-9.507-13.065c0-6.04,2.449-13.024,9.646-13.024c1.333,0,2.493,0.26,3.504,0.714
		c-3.16,0.854-5.499,3.715-5.499,7.14c0,4.104,3.325,7.427,7.427,7.427c1.413,0,2.721-0.416,3.844-1.101
		C552.858,128.538,550.552,134.729,543.746,134.729z"/>
</g>
<g>
	<path fill="#433F3F" d="M442.063,42.848c0-2.035-0.091-4.587-0.364-6.198c-0.031-0.212-0.06-0.364-0.091-0.485
		c0-0.031,0-0.062,0-0.091c0-0.274,0.152-0.364,0.455-0.394c0.152,0,0.365,0,0.698,0c0.761,0.03,4.011,0.242,4.801,0.302
		c0.79,0.092,1.032,0.335,1.032,0.639c0,0.274-0.242,0.608-0.517,0.851c-0.243,0.213-0.272,0.668-0.272,1.428
		c0,1.549,0,2.703,0,3.918c4.132-0.061,7.868-0.213,9.66-0.395v5.801c-2.613-0.12-6.197-0.152-9.874-0.152
		c-0.637,5.682-2.823,10.299-10.236,14.492c-1.366-1.671-2.885-2.916-4.739-4.345c6.167-2.643,8.476-5.802,9.173-10.084
		c-4.313,0.06-8.261,0.182-10.539,0.303v-5.863C433.437,42.756,437.629,42.848,442.063,42.848z"/>
	<path fill="#433F3F" d="M470.514,45.248c1.032,0,2.095,0,3.19,0c-0.03-0.789-0.063-1.671-0.093-2.583
		c-2.217,0.303-4.525,0.547-6.896,0.7c-0.789-2.067-1.427-3.402-2.702-5.5c0.15,0,0.303,0,0.517,0
		c3.219,0,13.759-0.485,16.615-2.489c0.06-0.031,0.122-0.092,0.15-0.123c0.214-0.122,0.336-0.213,0.457-0.213
		c0.122,0,0.243,0.124,0.486,0.365c1.153,1.215,2.521,2.611,3.524,3.948c0.242,0.334,0.362,0.609,0.362,0.821
		c0,0.304-0.241,0.486-0.637,0.486c-0.151,0-0.334,0-0.517-0.061c-0.213-0.061-0.364-0.061-0.518-0.061
		c-0.121,0-0.242,0-0.362,0.031c-0.335,0.091-0.76,0.243-1.642,0.455c-1.063,0.273-2.126,0.516-3.22,0.728
		c0.031,1.155,0.061,2.31,0.061,3.404c4.01-0.061,7.747-0.213,10.056-0.366l0.03,5.772c-2.247-0.06-5.104-0.123-8.173-0.123
		c-0.637,0-1.306,0-1.974,0c-0.426,5.166-2.461,9.905-9.873,12.791c-1.185-1.611-2.49-2.947-4.92-4.618
		c6.256-1.398,8.536-3.979,9.113-8.11c-4.558,0.06-8.688,0.182-10.968,0.303v-5.681C464.316,45.218,467.202,45.248,470.514,45.248z"
		/>
	<path fill="#433F3F" d="M504.048,55.059c1.092,0,2.217,0,3.341,0c0.243-2.886,0.486-5.588,0.607-7.534
		c-3.007,0.033-6.805,0.152-10.268,0.213v-4.89c1.244,0.03,2.795,0.06,4.525,0.06c3.464,0,7.625-0.091,11.24-0.243
		c-0.272,3.827-0.698,8.353-1.094,12.303c2.036-0.061,3.767-0.122,4.892-0.243l-0.061,5.194c-2.158-0.06-5.135-0.091-8.232-0.091
		c-5.317,0-10.967,0.061-13.488,0.152l-0.06-5.042C497.181,55.029,500.462,55.059,504.048,55.059z"/>
	<path fill="#433F3F" d="M524.458,48.862v-5.438c1.854,0.092,4.799,0.123,7.898,0.123c4.95,0,10.268-0.091,11.755-0.123
		c0.122,0,0.426-0.121,0.548-0.212c0.272-0.152,0.455-0.212,0.637-0.212c0.184,0,0.335,0.028,0.547,0.152
		c0.122,0.089,0.334,0.212,0.516,0.333c0.7,0.425,1.946,1.306,2.583,1.822c0.273,0.213,0.396,0.396,0.396,0.608
		c0,0.182-0.062,0.334-0.213,0.546c-0.426,0.607-0.729,1.155-1.003,1.853c-2.976,7.655-6.773,11.544-16.343,14.55
		c-0.882-1.428-2.34-3.311-4.223-5.042c8.659-1.701,12.576-5.348,14.126-9.204C536.791,48.68,529.682,48.772,524.458,48.862z
		 M539.038,41.177c-4.222,0-8.869,0.06-11.542,0.152v-5.407c1.671,0.06,4.191,0.091,6.864,0.091c4.102,0,8.628-0.061,11.119-0.213
		l0.028,5.469C543.809,41.207,541.5,41.177,539.038,41.177z"/>
	<path fill="#433F3F" d="M566.923,58.827c-1.976,0-3.889,0-5.53,0.03c0,0.607,0.031,1.155,0.031,1.701h-5.954
		c0.184-3.463,0.242-10.906,0.242-16.677c0-2.37,0-4.465-0.028-5.864c2.338,0.033,5.497,0.033,8.81,0.033
		c5.225,0,10.813-0.033,14.094-0.122c-0.03,1.913-0.062,4.464-0.062,7.198c0,5.467,0.092,11.726,0.335,15.28h-6.104v-1.549
		C570.932,58.827,568.898,58.827,566.923,58.827z M566.102,53.723c2.309,0,4.647-0.031,6.684-0.061c0-3.675,0-7.291,0-10.39
		c-2.855,0-8.659,0-11.422,0c-0.029,2.614-0.029,6.563-0.029,10.42C562.822,53.692,564.462,53.723,566.102,53.723z"/>
	<path fill="#433F3F" d="M592.74,51.627c-3.038-1.944-5.133-2.887-8.596-4.222L587.091,43c3.25,1.153,5.406,2.035,8.475,3.826
		L592.74,51.627z M586.24,56.881c0-0.06,0.03-0.12,0.059-0.152c0.063-0.06,0.184-0.089,0.367-0.119
		c9.172-1.55,17.07-8.628,21.871-16.162c1.457,2.795,2.154,3.889,3.279,5.591c-5.65,6.955-11.359,12.058-18.528,14.823
		c-1.764,0.698-2.006,0.851-2.128,1.215c-0.122,0.394-0.272,0.668-0.547,0.668c-0.242,0-0.547-0.182-0.942-0.668
		c-0.546-0.639-2.58-3.463-3.098-4.405C586.33,57.278,586.24,57.033,586.24,56.881z M596.688,44.275
		c-2.581-1.731-4.859-2.826-8.656-4.313l3.068-4.345c3.038,1.003,5.497,2.067,8.688,3.951L596.688,44.275z M602.856,37.379
		l2.338-1.58c1.215,1.033,2.218,2.158,3.28,3.404l-2.367,1.732C605.135,39.597,604.101,38.534,602.856,37.379z M606.197,35.283
		l2.277-1.519c1.217,1.002,2.188,1.976,3.158,3.251l-2.245,1.64C608.416,37.44,607.412,36.378,606.197,35.283z"/>
	<path fill="#433F3F" d="M615.673,45.551c1.185,0.091,4.496,0.152,8.323,0.152c6.257,0,13.882-0.121,15.916-0.334l0.032,6.197
		c-1.125-0.091-4.042-0.121-7.504-0.121c-6.41,0-14.642,0.121-16.768,0.303V45.551z"/>
</g>
<path fill="#5DA8B6" d="M71.91,57.677c-5.719,9.995-4.755,21.731-10.025,31.396c-0.063-16.822-3.774-29.16,6.48-43.848
	c3.305-4.734,5.872-8.934,7.229-14.492c0.975-3.995,2.109-12.442,7.065-13.813c-18.678-1.8-19.576,18.778-22.267,31.511
	c0.981-18.749,5.32-32.886-10.614-46.739C49.38,3.431,48.715,5.07,47.78,6.605c-5.106,7.488-5.929,14.231-1.035,21.841
	c2.283,3.549,8.394,14.841,6.406,18.994c-7.763-10.452-19.293-25.766-34.906-19.191c11.071,2.969,21.98,11.351,30.188,18.928
	c10.261,9.47,7.281,23.686,8.309,36.223C48.29,52.506,28.212,36.892-0.056,39.218c17.546,7.602,8.83,26.42,37.376,39.925
	c13.506,6.39,19.697,11.504,19.465,28.895c-0.185,13.835-1.19,38.526-1.19,38.526h8.577c0,0-1.359-27.863-1.124-42.508
	C63.241,92.209,75.87,86.77,83.23,77.983c4.216-5.034,7.946-11.075,11.292-16.684c5.501-9.224,7.555-21.728,16.726-28.465
	C94.591,36.407,80.466,42.711,71.91,57.677z"/>
</svg>
